<?xml version="1.0" encoding="utf-8"?>
<svg x="0px" y="0px" viewBox="0 0 77 80.54" xmlns="http://www.w3.org/2000/svg" xmlns:bx="https://boxy-svg.com">
  <g transform="matrix(0.845464, 0, 0, 1, -3.773203, -962.338745)" bx:origin="0 0">
    <path style="font-size:medium;font-style:normal;font-variant:normal;font-weight:normal;font-stretch:normal;text-indent:0;text-align:start;text-decoration:none;line-height:normal;letter-spacing:normal;word-spacing:normal;text-transform:none;direction:ltr;block-progression:tb;writing-mode:lr-tb;text-anchor:start;baseline-shift:baseline;opacity:1;color:#000000;fill:#000000;fill-opacity:1;stroke:none;stroke-width:6;marker:none;visibility:visible;display:inline;overflow:visible;enable-background:accumulate;font-family:Sans;-inkscape-font-specification:Sans" d="M 49.9375 10 A 3.0003 3.0003 0 0 0 48.125 10.65625 L 6.125 44.65625 A 3.0003 3.0003 0 0 0 8 50 L 15 50 L 15 75 A 3.0003 3.0003 0 1 0 21 75 L 21 47 A 3.0003 3.0003 0 0 0 18 44 L 16.46875 44 L 50 16.875 L 67.875 31.34375 A 3.0003 3.0003 0 0 0 69.75 32 L 79 32 L 79 38.90625 A 3.0003 3.0003 0 0 0 80.125 41.25 L 83.53125 44 L 82 44 A 3.0003 3.0003 0 0 0 79 47 L 79 49 L 79 84 L 74 84 A 3.0003 3.0003 0 1 0 74 90 L 82 90 A 3.0003 3.0003 0 0 0 85 87 L 85 50 L 92 50 A 3.0003 3.0003 0 0 0 93.875 44.65625 L 85 37.46875 L 85 29 A 3.0003 3.0003 0 0 0 82 26 L 70.8125 26 L 51.875 10.65625 A 3.0003 3.0003 0 0 0 49.9375 10 z M 50 50 C 41.741892 50 35 56.7419 35 65 L 35 84 L 18 84 A 3.0003 3.0003 0 1 0 18 90 L 38 90 A 3.0003 3.0003 0 0 0 41 87 L 41 65 C 41 59.9621 44.962108 56 50 56 C 55.037892 56 59 59.9621 59 65 L 59 87 A 3.0003 3.0003 0 1 0 65 87 L 65 65 C 65 56.7419 58.258108 50 50 50 z " transform="translate(0,952.36218)"/>
  </g>
</svg>